<?xml version="1.0" standalone="no"?>
<!DOCTYPE svg PUBLIC "-//W3C//DTD SVG 20010904//EN"
 "http://www.w3.org/TR/2001/REC-SVG-20010904/DTD/svg10.dtd">
<svg version="1.0" xmlns="http://www.w3.org/2000/svg"
 width="238.000000pt" height="292.000000pt" viewBox="0 0 238.000000 292.000000"
 preserveAspectRatio="xMidYMid meet">
<metadata>
Created by potrace 1.10, written by Peter Selinger 2001-2011
</metadata>
<g transform="translate(0.000000,292.000000) scale(0.100000,-0.100000)"
fill="#000000" stroke="none">
<path d="M1133 2885 c-203 -28 -281 -57 -453 -173 -244 -163 -449 -435 -548
-727 -74 -219 -97 -416 -97 -840 1 -396 10 -671 25 -709 l10 -27 185 4 c101 1
191 -1 199 -5 13 -7 14 8 13 104 -3 134 -36 258 -68 258 -25 0 -24 -18 2 -38
20 -17 44 -96 34 -113 -4 -5 -1 -9 4 -9 7 0 11 -32 11 -85 0 -47 -4 -85 -9
-85 -5 0 -21 4 -35 10 -15 5 -26 6 -26 0 0 -5 -9 -8 -20 -7 -11 1 -20 6 -20
12 0 5 -4 4 -9 -4 -6 -10 -13 -10 -29 -2 -11 6 -22 7 -24 2 -2 -4 -16 -11 -33
-15 -28 -6 -29 -5 -11 9 17 13 17 15 4 15 -9 0 -20 -5 -23 -10 -8 -13 -50 -13
-98 1 -35 9 -37 12 -37 49 0 21 -5 42 -10 45 -6 4 -8 11 -4 16 3 5 10 7 15 4
5 -4 9 -2 9 3 0 6 -7 13 -16 16 -11 4 -13 10 -7 19 8 11 10 33 3 40 -2 1 -4
52 -5 112 -1 61 -6 131 -10 158 -7 43 -6 47 11 41 16 -5 16 -4 4 5 -17 12 -22
131 -5 131 6 0 6 3 -1 8 -5 4 -9 25 -8 47 1 22 3 50 3 63 1 26 21 20 21 -7 0
-18 18 -45 62 -92 14 -15 29 -37 33 -48 3 -12 10 -21 15 -21 11 0 70 -118 70
-139 0 -24 40 -99 56 -105 12 -5 11 0 -3 22 -11 15 -29 59 -42 97 -26 78 -62
140 -116 200 -49 54 -75 111 -74 165 1 53 25 125 55 163 30 37 96 69 136 65
29 -3 34 -7 38 -38 6 -44 20 -48 177 -49 l123 -1 -3 28 c-3 28 -20 38 -24 14
-3 -25 -14 -27 -120 -25 -82 2 -110 6 -124 19 -10 9 -17 20 -14 24 2 4 -4 16
-15 28 -16 17 -28 20 -62 16 -24 -3 -46 -11 -50 -17 -4 -6 -10 -9 -13 -5 -8 8
-85 -62 -85 -78 0 -15 -39 -102 -41 -89 0 6 -2 20 -5 33 -2 13 0 21 5 18 5 -3
11 5 13 19 3 13 2 22 -3 20 -4 -3 -7 15 -7 40 0 25 4 45 10 45 5 0 9 10 8 23
-5 52 0 78 12 71 10 -5 10 -4 1 6 -6 7 -9 28 -7 49 11 82 28 156 38 163 7 5 7
8 -2 8 -10 0 -10 5 -2 20 6 10 12 33 14 51 2 17 10 35 17 40 8 5 11 9 7 9 -4
0 1 23 12 50 11 28 20 59 20 69 0 10 7 24 15 31 8 7 15 21 15 32 0 11 9 22 20
25 13 3 20 14 20 29 0 13 5 24 11 24 5 0 8 4 5 9 -3 5 1 14 9 21 8 7 15 21 15
31 0 12 7 19 20 19 11 0 20 5 20 11 0 5 -5 7 -11 3 -7 -4 -10 -3 -7 2 21 46
34 64 54 75 14 7 24 21 24 33 0 20 36 53 53 48 5 -1 6 1 3 6 -3 5 6 20 19 32
14 13 25 30 25 37 0 8 5 11 10 8 6 -3 10 -1 10 6 0 7 3 9 7 6 3 -4 15 7 25 24
10 16 23 27 28 24 6 -3 10 -1 10 4 0 6 6 11 13 11 7 0 18 9 25 21 9 14 19 18
35 14 12 -4 17 -3 11 2 -8 5 -5 14 9 28 11 11 17 14 12 7 -6 -11 -3 -11 13 -1
12 7 18 17 16 21 -8 13 11 9 25 -4 10 -11 11 -10 6 4 -7 17 26 43 39 31 3 -3
6 -1 6 5 0 7 7 12 15 12 8 0 15 4 15 9 0 5 14 12 30 16 18 4 27 11 24 17 -5 7
0 9 14 6 12 -4 22 -3 22 1 0 7 94 31 123 31 9 0 17 5 17 11 0 14 41 8 59 -9 7
-7 16 -10 19 -7 4 3 0 10 -8 15 -12 8 -10 10 8 10 12 0 22 -6 23 -12 0 -7 4
-4 9 7 6 13 9 15 9 5 1 -13 2 -13 11 0 8 12 13 13 29 3 16 -10 19 -10 15 0 -3
8 6 13 26 13 16 1 30 -3 30 -8 0 -5 4 -7 9 -3 16 10 91 14 85 4 -3 -5 0 -9 5
-9 6 0 11 4 11 8 0 5 7 9 15 9 8 0 15 -5 15 -11 0 -6 5 -5 12 2 9 9 15 9 27
-1 12 -9 13 -9 7 1 -5 9 -1 11 16 8 13 -3 26 -5 30 -5 4 -1 14 -8 23 -18 14
-14 18 -14 26 -2 7 11 9 11 9 1 0 -7 5 -10 10 -7 6 4 26 -3 45 -15 19 -12 35
-17 35 -12 0 17 40 1 41 -17 0 -9 3 -11 5 -5 5 13 44 7 44 -7 0 -5 7 -6 15 -3
8 4 15 2 15 -2 0 -5 27 -22 60 -38 33 -16 60 -33 60 -38 0 -5 4 -7 9 -4 5 3
14 -1 21 -9 7 -8 16 -12 21 -9 5 3 9 -2 9 -10 0 -9 7 -16 15 -16 8 0 19 -8 24
-18 5 -10 21 -24 35 -32 14 -7 26 -17 26 -21 0 -4 16 -25 35 -46 19 -21 38
-46 41 -56 3 -11 15 -28 25 -38 11 -11 17 -24 14 -29 -3 -4 0 -10 5 -12 6 -2
12 -10 13 -18 2 -8 6 -21 10 -27 5 -7 6 -17 3 -22 -4 -5 0 -12 6 -15 9 -3 7
-10 -7 -21 -20 -17 -20 -17 2 -10 18 5 25 0 36 -27 16 -38 37 -171 32 -199 -2
-10 -1 -19 3 -19 4 0 8 -26 9 -58 1 -32 6 -70 12 -84 5 -15 6 -41 1 -62 -4
-21 -4 -34 1 -30 14 8 11 -60 -3 -75 -11 -10 -10 -11 4 -6 13 5 15 2 11 -14
-3 -13 -1 -21 7 -21 9 0 9 -4 2 -13 -12 -13 -11 -35 1 -54 4 -6 3 -13 -3 -15
-7 -2 -7 -14 -1 -35 6 -21 6 -35 0 -39 -6 -4 -6 -10 0 -18 7 -9 7 -16 -1 -24
-9 -9 -9 -12 0 -12 7 0 12 -16 12 -42 0 -32 -3 -39 -10 -28 -13 20 -13 4 0
-21 8 -13 7 -25 -1 -40 -8 -15 -8 -19 0 -15 6 4 11 2 11 -3 0 -6 -4 -11 -9
-11 -11 0 -9 -63 3 -71 5 -4 5 -15 1 -25 -8 -17 -13 -67 -15 -148 -1 -16 -9
-36 -18 -43 -16 -12 -16 -13 1 -7 16 6 17 3 10 -22 -4 -16 -7 -40 -6 -54 1
-14 -4 -28 -10 -32 -9 -6 -9 -8 1 -8 6 0 12 -6 12 -14 0 -8 -6 -17 -12 -19 -7
-3 -8 -6 -3 -6 8 -1 12 -96 5 -96 -1 0 -3 -36 -4 -80 -1 -44 -5 -86 -10 -93
-4 -7 -3 -19 3 -25 9 -12 0 -132 -12 -143 -7 -8 -112 -8 -124 -1 -7 5 -13 4
-13 0 0 -5 -27 -10 -61 -11 -33 -1 -64 -4 -69 -7 -4 -3 -16 -2 -24 1 -15 6
-15 8 -1 31 32 48 75 138 75 155 0 10 4 18 9 18 4 0 20 39 35 88 15 48 31 96
36 107 16 40 29 82 50 170 11 50 24 97 27 105 3 8 7 24 10 35 8 44 13 76 17
102 2 16 10 55 19 88 23 90 29 133 19 139 -5 3 -16 -34 -25 -82 -10 -48 -22
-112 -27 -142 -23 -120 -102 -420 -119 -450 -5 -9 -12 -30 -16 -48 -18 -84
-109 -264 -164 -324 l-24 -27 49 4 c120 11 175 14 260 15 l92 0 6 63 c3 34 8
136 12 227 3 91 12 251 20 355 25 346 12 695 -41 1115 -9 65 -58 201 -102 277
-24 42 -43 80 -43 83 0 4 -37 43 -82 86 -139 134 -246 188 -534 275 -43 13
-301 9 -411 -6z"/>
<path d="M1308 2280 c-16 -21 -28 -44 -28 -52 0 -8 -5 -19 -12 -26 -39 -39
-76 -278 -82 -529 l-5 -208 -41 -3 c-24 -2 -46 2 -54 10 -35 35 -70 445 -45
526 4 15 15 54 23 87 12 49 12 57 1 41 -28 -38 -40 -129 -39 -306 0 -181 22
-343 49 -365 6 -5 37 -8 68 -7 l56 4 1 191 c1 173 4 222 26 362 9 58 66 228
82 244 14 14 35 61 30 67 -2 1 -15 -15 -30 -36z"/>
<path d="M1366 2312 c-3 -5 10 -31 28 -58 43 -64 80 -159 101 -259 23 -108 24
-112 31 -263 4 -73 12 -136 17 -139 7 -4 7 35 3 113 -10 159 -20 259 -27 259
-1 0 -3 10 -4 23 -4 34 -35 134 -51 165 -8 15 -12 27 -7 27 4 0 2 4 -4 8 -7 4
-14 18 -16 30 -2 12 -17 37 -35 56 -20 22 -27 36 -19 40 9 3 9 5 0 5 -6 1 -14
-3 -17 -7z"/>
<path d="M1731 2282 c-1 -7 5 -23 13 -35 16 -24 69 -210 85 -297 15 -79 32
-376 25 -432 l-6 -48 61 0 61 0 0 317 c0 174 -3 314 -6 311 -3 -3 -6 -136 -8
-295 -1 -159 -6 -295 -10 -302 -5 -7 -19 -11 -32 -8 -13 2 -24 -1 -24 -6 0 -7
-3 -7 -9 -1 -5 5 -12 92 -15 194 -6 179 -11 224 -35 338 -17 82 -62 226 -74
233 -5 4 -6 12 -2 19 5 8 4 11 -3 6 -5 -3 -13 0 -15 6 -4 10 -6 10 -6 0z"/>
<path d="M1697 2274 c-6 -10 -12 -71 -21 -204 -2 -25 -8 -88 -14 -140 -6 -52
-14 -151 -17 -220 -5 -123 -12 -204 -20 -226 -5 -15 -58 -15 -67 0 -4 6 -8 30
-8 54 0 23 -4 42 -8 42 -5 0 -8 -27 -8 -60 1 -60 1 -60 31 -60 16 0 39 -3 51
-6 26 -7 29 9 44 241 11 172 24 325 41 472 11 89 9 128 -4 107z"/>
<path d="M1014 2123 c-9 -21 -19 -47 -24 -58 -4 -11 -12 -31 -18 -45 -19 -44
-30 -94 -48 -235 -8 -56 -8 -110 0 -209 7 -79 6 -100 -5 -107 -11 -7 -10 -9 4
-9 11 0 15 -5 11 -11 -4 -7 -43 -9 -122 -5 -63 3 -117 7 -118 9 -2 2 -11 39
-19 83 -21 104 -29 264 -17 342 5 34 6 62 2 62 -11 0 -20 -84 -20 -189 0 -80
30 -305 42 -316 1 -1 63 -5 137 -8 l134 -5 -9 91 c-21 219 2 417 66 562 22 51
33 85 26 85 -3 0 -12 -17 -22 -37z"/>
<path d="M1990 2120 c0 -15 4 -30 8 -35 5 -6 17 -48 27 -95 11 -47 21 -87 24
-90 3 -3 6 -21 7 -40 1 -66 26 -395 30 -402 3 -4 17 -5 32 -2 15 3 49 6 76 7
32 1 51 7 54 16 3 8 0 11 -7 7 -6 -4 -40 -9 -74 -11 l-63 -4 -10 85 c-5 47 -6
88 -1 91 4 3 3 11 -4 19 -7 8 -9 27 -5 45 3 16 2 28 -2 25 -4 -2 -7 12 -8 32
0 21 -4 62 -8 92 -4 30 -8 71 -9 92 -1 20 -5 34 -9 32 -3 -2 -12 21 -18 51 -6
31 -18 68 -26 83 l-14 27 0 -25z"/>
<path d="M612 1940 c0 -19 -5 -57 -11 -83 -17 -74 -26 -320 -13 -343 9 -15 11
12 11 116 1 74 7 173 15 220 7 47 10 94 6 105 -6 15 -8 12 -8 -15z"/>
<path d="M169 1392 c-15 -18 -32 -52 -25 -52 2 0 16 16 30 35 27 36 23 50 -5
17z"/>
<path d="M208 1350 c-23 -22 -24 -108 -2 -136 15 -18 15 -18 8 5 -4 15 -1 27
7 33 11 8 11 9 -2 5 -23 -7 -23 73 0 90 9 6 14 13 11 16 -3 2 -13 -3 -22 -13z"/>
<path d="M1214 1342 c6 -10 71 -10 81 -1 3 3 -15 7 -41 7 -25 1 -43 -2 -40 -6z"/>
<path d="M121 1272 c-1 -13 3 -20 9 -17 6 4 10 -9 10 -30 0 -26 9 -49 30 -75
17 -21 30 -41 30 -44 0 -10 53 -66 58 -62 2 3 -17 30 -42 61 -41 51 -65 105
-69 156 -1 9 -4 16 -8 13 -4 -2 -10 2 -12 8 -3 7 -6 3 -6 -10z"/>
<path d="M1730 1250 c-6 -12 -8 -30 -5 -40 4 -12 2 -20 -5 -20 -6 0 -8 -5 -5
-11 4 -6 -1 -17 -11 -25 -17 -12 -17 -13 -1 -8 12 4 17 1 17 -12 0 -35 14 -2
17 39 2 23 7 54 12 70 12 32 -3 37 -19 7z"/>
<path d="M1230 1242 c0 -10 -5 -23 -12 -30 -7 -7 -9 -12 -5 -12 4 0 3 -9 -3
-20 -9 -17 -8 -19 7 -13 14 5 15 3 6 -7 -6 -7 -9 -19 -6 -28 5 -11 3 -13 -8
-7 -12 8 -12 6 0 -8 8 -10 15 -16 17 -14 6 5 14 157 9 157 -3 0 -5 -8 -5 -18z"/>
<path d="M1810 1162 c-49 -40 -33 -202 21 -202 45 0 72 165 33 204 -20 20 -27
20 -54 -2z m40 -83 c-22 -30 -40 -38 -40 -17 0 17 41 58 52 52 4 -3 -1 -19
-12 -35z"/>
<path d="M1307 1158 c-9 -7 -21 -34 -26 -59 -29 -132 58 -208 89 -78 24 101
-10 176 -63 137z m34 -81 c-20 -31 -41 -47 -41 -30 0 18 41 74 51 68 6 -4 3
-18 -10 -38z"/>
<path d="M262 1148 c-9 -9 -6 -19 12 -42 12 -17 25 -38 29 -46 4 -10 6 -8 6 7
1 12 -6 26 -15 31 -9 5 -17 21 -17 35 -1 15 -2 27 -2 27 -1 0 -6 -5 -13 -12z"/>
<path d="M1216 1081 c-4 -5 -3 -16 0 -25 3 -9 1 -23 -5 -30 -7 -8 -8 -17 -4
-19 5 -3 8 -44 7 -91 -2 -70 0 -83 11 -73 7 7 11 16 8 20 -3 4 -5 57 -4 117 0
107 -2 120 -13 101z"/>
<path d="M320 1053 c0 -32 15 -61 26 -50 4 4 2 13 -4 19 -7 7 -8 16 -3 22 6 7
3 16 -5 24 -12 11 -14 8 -14 -15z"/>
<path d="M1718 1020 c-6 -20 4 -150 12 -150 5 0 9 36 9 80 0 44 -4 80 -9 80
-4 0 -10 -4 -12 -10z"/>
<path d="M1621 990 c-6 -18 -5 -220 2 -220 4 0 7 41 7 91 0 57 4 88 10 84 6
-3 10 1 10 10 0 9 -4 14 -9 10 -5 -3 -12 3 -14 12 -3 10 -5 16 -6 13z"/>
<path d="M285 970 c-3 -5 -1 -10 6 -10 7 0 10 -3 6 -6 -11 -11 31 -76 57 -89
34 -18 33 -14 -9 28 -19 19 -35 44 -35 55 0 24 -16 37 -25 22z"/>
<path d="M1510 920 c0 -11 -5 -20 -12 -20 -9 0 -9 -3 0 -12 14 -14 16 -32 3
-24 -5 4 -8 -16 -6 -46 2 -29 5 -70 6 -90 2 -21 6 -38 10 -38 4 0 8 56 8 125
1 69 -1 125 -4 125 -3 0 -5 -9 -5 -20z"/>
<path d="M347 813 c-11 -10 -8 -83 3 -83 6 0 10 -4 10 -10 0 -5 -7 -10 -15
-10 -8 0 -15 -4 -15 -10 0 -5 8 -10 17 -10 14 0 13 -4 -6 -21 -18 -17 -20 -23
-9 -30 35 -22 39 -11 34 82 -4 91 -7 105 -19 92z"/>
<path d="M520 761 c0 -24 264 -271 291 -271 5 0 9 5 9 11 0 5 -4 7 -10 4 -5
-3 -10 -1 -10 5 0 6 -4 8 -10 5 -9 -6 -14 8 -11 28 1 5 -3 6 -9 2 -5 -3 -10
-1 -10 4 0 6 -7 11 -15 11 -8 0 -15 4 -15 9 0 5 -27 31 -60 58 -43 35 -58 53
-54 66 3 9 0 17 -6 17 -6 0 -8 -4 -5 -10 3 -5 2 -10 -2 -10 -12 0 -38 43 -35
57 2 8 -3 10 -14 6 -9 -3 -20 0 -25 8 -7 12 -9 12 -9 0z"/>
<path d="M1599 695 c-13 -29 -14 -35 -3 -35 8 0 14 5 14 10 0 21 2 25 17 43
13 14 13 17 2 17 -8 -1 -21 -16 -30 -35z"/>
<path d="M506 671 c-3 -5 5 -12 19 -15 14 -4 25 -12 25 -19 0 -8 21 -31 46
-53 25 -21 64 -56 86 -76 22 -21 44 -36 48 -33 4 3 10 -2 14 -10 3 -8 13 -15
21 -15 12 0 15 -6 10 -22 -4 -16 -3 -19 3 -10 8 12 13 12 31 0 12 -7 19 -19
16 -26 -3 -8 0 -10 6 -6 6 4 15 0 20 -7 6 -10 9 -8 9 9 0 12 -6 22 -13 22 -7
0 -22 8 -33 18 -17 15 -31 26 -91 67 -8 6 -29 24 -47 40 -169 159 -160 152
-170 136z"/>
<path d="M1595 494 c-33 -9 -73 -11 -117 -7 -58 5 -68 4 -68 -10 0 -17 55 -37
102 -37 80 0 168 35 152 61 -6 11 -6 11 -69 -7z"/>
<path d="M830 481 c0 -13 128 -89 235 -138 104 -48 145 -61 145 -43 0 6 -4 9
-9 5 -5 -3 -12 -1 -16 5 -3 5 -13 10 -22 10 -22 0 -77 24 -159 71 -19 10 -34
15 -34 11 0 -4 -4 -2 -8 3 -4 6 -16 15 -27 22 -11 6 -19 16 -18 21 1 6 -8 7
-20 4 -20 -5 -20 -4 -8 11 7 10 9 17 3 17 -6 0 -13 -6 -16 -12 -3 -10 -9 -8
-19 5 -16 19 -27 22 -27 8z"/>
<path d="M1878 390 c-10 -9 -18 -22 -18 -28 0 -7 -4 -12 -10 -12 -5 0 -10 -6
-10 -14 0 -8 -7 -16 -15 -20 -8 -3 -15 -12 -15 -21 0 -8 -4 -15 -9 -15 -12 0
-21 -39 -11 -45 10 -6 50 43 50 61 0 8 3 14 8 14 4 0 13 15 21 33 8 17 19 35
24 38 5 4 8 11 6 16 -2 6 -12 3 -21 -7z"/>
<path d="M467 348 c-11 -29 -16 -48 -16 -54 0 -4 -3 -10 -8 -13 -13 -10 -43
-71 -34 -71 12 0 51 36 46 42 -3 3 2 22 10 42 9 21 14 45 12 54 -4 15 -5 15
-10 0z"/>
<path d="M988 323 c6 -2 9 -10 6 -15 -4 -7 -2 -8 4 -4 7 4 32 -7 56 -23 25
-17 53 -31 64 -31 31 0 82 -21 82 -33 0 -7 5 -5 10 3 6 10 10 11 10 3 0 -7 12
-13 26 -13 14 0 34 -5 46 -11 19 -10 38 -5 25 7 -3 3 -34 14 -69 23 -35 10
-76 23 -93 30 -16 7 -42 15 -58 18 -15 3 -30 10 -33 14 -6 10 -71 40 -83 38
-3 0 0 -3 7 -6z"/>
<path d="M1230 282 c8 -5 36 -15 62 -22 40 -10 49 -10 62 3 13 13 10 14 -27
13 -23 0 -58 3 -77 7 -21 5 -29 4 -20 -1z"/>
<path d="M1360 251 c0 -11 42 -19 140 -27 72 -6 80 -5 74 10 -6 16 -25 21 -37
9 -4 -3 -19 -8 -33 -9 -21 -2 -24 0 -13 12 10 13 8 13 -16 4 -22 -8 -30 -8
-37 2 -6 11 -8 11 -8 0 0 -7 -4 -11 -8 -8 -16 10 -62 15 -62 7z"/>
<path d="M1763 223 c6 -9 0 -40 -18 -88 -7 -19 -7 -19 6 -2 13 16 15 14 28
-27 7 -25 16 -44 20 -43 3 1 8 -2 11 -8 15 -27 54 -55 78 -54 l27 1 -26 11
c-28 13 -79 68 -79 85 0 6 -6 12 -12 14 -8 3 -13 26 -14 58 -1 33 -7 56 -14
58 -7 3 -10 0 -7 -5z"/>
<path d="M386 191 c-4 -6 -4 -11 0 -11 4 0 -7 -14 -25 -30 -17 -17 -31 -35
-31 -40 0 -6 -7 -10 -15 -10 -9 0 -12 -6 -9 -15 4 -8 2 -15 -3 -15 -5 0 -18
-8 -29 -19 -11 -10 -34 -26 -50 -35 l-29 -16 43 3 c29 1 41 6 37 15 -2 7 6 17
18 23 12 5 33 27 46 47 14 20 35 47 49 58 19 17 22 26 15 39 -7 12 -13 14 -17
6z"/>
<path d="M1375 186 c22 -7 69 -13 105 -14 87 -1 42 13 -65 21 -74 5 -77 5 -40
-7z"/>
</g>
</svg>
